<svg width="50" height="50" viewBox="0 0 50 50" fill="none" xmlns="http://www.w3.org/2000/svg">
<g id="Livello_1" clip-path="url(#clip0_607_54)">
<path id="Vector" d="M38.9503 5.86567V7.19083C39.1498 7.20672 39.3539 7.22033 39.5103 7.23395C39.9116 6.84593 40.17 6.46925 40.0521 5.94963C39.8912 5.88382 39.7438 5.82255 39.6055 5.76583C39.6463 5.6138 39.6463 5.53438 39.6849 5.47992C39.8957 5.18947 40.1655 4.96937 40.3491 4.62673C40.7436 3.89381 41.4894 3.72135 42.2648 4.02541C42.564 3.21761 42.9834 2.54368 43.9583 2.47561C44.0217 2.47107 44.092 2.42115 44.1396 2.37123C44.4525 2.0354 44.5318 1.50442 45.0533 1.34332C45.5769 1.18221 45.5905 0.64216 45.7855 0.292716C46.1573 0.20649 46.4996 0.127071 46.9394 0.0272294C47.216 0.238257 47.606 0.390288 47.9211 0C48.4856 0.183798 48.9843 0.347175 49.5352 0.526435V0.971182C49.7075 1.13683 49.8436 1.26844 50 1.42047V2.68437C49.7415 3.04742 49.4831 3.65782 49.0251 4.00272C48.2158 4.61085 47.5697 5.371 46.8125 6.01997C46.2117 6.53506 45.4885 6.90946 45.1417 7.68777C45.085 7.81257 44.8039 7.81711 44.6973 7.93964C44.2893 8.41162 43.7814 8.77241 43.4482 9.33742C43.0129 10.0772 42.4189 10.7238 41.8907 11.4114C41.6277 11.754 41.3602 12.0944 41.07 12.4688C40.8569 12.3712 40.6393 12.2737 40.2539 12.0989C40.3627 12.4348 40.4194 12.6118 40.5146 12.8999C40.3854 13.0996 40.4035 13.5489 39.9093 13.6238C39.1748 14.511 38.413 15.3801 37.8395 16.3876C37.776 16.501 37.8304 16.6803 37.8304 16.9095C37.4291 17.2158 37.0211 17.5834 36.5586 17.8648C35.9601 18.2301 35.5157 18.7043 35.1235 19.2898C34.6769 19.9592 34.1079 20.5446 33.4935 21.2866C33.5706 21.7404 33.6749 22.3417 33.7905 23.027C34.0059 23.1995 34.2825 23.4218 34.618 23.6896C34.3346 23.9052 34.0059 24.1548 33.6749 24.4089H31.9202C31.3897 24.6449 31.4668 25.0624 31.5166 25.4958C32.0539 25.8816 32.6434 26.206 32.9698 26.88C33.1104 27.1681 33.6023 27.2861 33.9605 27.4949C33.9719 27.7105 33.9855 27.9646 33.9968 28.1802C34.72 28.5001 35.5883 28.491 35.9034 29.3964C35.9601 29.5575 36.155 29.671 36.2933 29.8003C36.7263 30.211 37.1934 30.5786 37.5674 31.0597C37.9256 31.518 38.4153 31.8652 38.6896 32.4075C38.778 32.58 39.0297 32.6617 39.1929 32.8046C39.3493 32.9408 39.5488 33.0724 39.6168 33.2494C39.8209 33.7781 40.1745 34.1797 40.5826 34.545C41.6821 35.5366 42.1968 36.8595 42.666 38.2051C42.7703 38.1348 42.8814 38.0576 43.0673 37.9283C43.5865 38.6567 43.5411 39.7005 44.3527 40.1225C44.4457 40.5764 44.5364 40.9576 44.5976 41.3433C44.6565 41.7245 44.6815 42.1103 44.7427 42.6934C44.7472 42.6866 44.6543 42.8727 44.5182 43.145C43.8948 43.6419 43.056 43.3628 42.165 43.4559C41.927 43.7191 41.63 44.0481 41.3239 44.3862C40.7232 44.4475 40.1247 44.6381 39.5828 44.536C38.837 44.3953 38.0367 44.3635 37.3679 43.8938C36.8216 43.5103 36.2027 43.3333 35.5044 43.4559C34.3437 42.5233 32.8202 42.2737 31.6073 41.4091C31.061 41.3569 30.569 41.4454 30.0703 41.7654C29.6078 42.0649 29.0682 42.285 28.4606 41.9083C28.2135 41.7563 27.8168 41.8425 27.411 41.8153V40.6512C27.2432 40.7965 27.1662 40.8623 27.0709 40.944C26.9009 40.7556 26.7263 40.565 26.5518 40.3699C26.4679 39.8956 26.3409 39.4055 26.3001 38.9086C26.2548 38.3413 25.8603 37.9555 25.6563 37.4745C25.4681 37.0252 25.314 36.56 25.1349 36.079C24.8674 35.9201 24.4638 35.8498 24.4684 35.405C24.0104 35.2212 23.557 35.0397 23.0718 34.8446C22.3441 35.2008 21.732 35.7341 21.3103 36.4919C21.1879 36.712 20.9657 36.88 20.7821 37.066C19.9569 37.8943 19.1226 38.7111 18.311 39.5507C18.0639 39.8071 17.9211 40.1725 17.6558 40.3994C17.3679 40.6444 16.9848 40.7738 16.6583 40.9757C16.3523 41.1641 16.1868 41.4931 15.8082 41.6542C15.4228 41.8198 15.0147 42.201 14.8606 42.5845C14.5908 43.2607 13.9741 43.5716 13.5343 44.0345C12.7681 44.8378 11.8 45.4482 10.9272 46.1516C10.7821 46.2696 10.6982 46.5623 10.5622 46.5782C10.1133 46.6304 10.229 47.1795 9.85036 47.2884C9.49896 47.3905 9.20424 47.5562 8.98207 47.926C8.83018 48.1779 8.37903 48.2414 8.07751 48.4139C7.52662 48.727 6.93945 49.0016 6.45657 49.401C5.91474 49.8502 5.32984 50.0045 4.66105 49.9977C4.13736 49.9932 3.61367 49.9977 3.18747 49.9977C2.87008 49.5961 2.60256 49.258 2.30331 48.8791C2.35319 48.7157 2.41213 48.5137 2.50055 48.2233C2.4008 48.1552 2.22397 48.0304 2.12195 47.9623C2.029 47.0048 2.2421 46.206 2.55949 45.4391C2.85194 44.7311 3.18293 44.039 3.53433 43.2562C2.84061 43.1314 2.21036 43.0179 1.4849 42.8886C1.08137 42.403 1.01109 42.2305 0.970282 41.5498C0.736775 41.3955 0.505535 41.2435 0.215351 41.0529C0.380847 40.8169 0.521404 40.6149 0.689167 40.3744V39.2217C0.550876 39.5167 0.47833 39.671 0.408051 39.8185C0.315102 39.8139 0.242556 39.8117 0.115601 39.8049V38.7815C0.172277 38.7021 0.272028 38.5636 0.371778 38.4275C0.491932 38.5478 0.546342 38.6022 0.60982 38.6658C0.777582 38.2596 0.943077 37.858 1.14485 37.3656C1.03829 37.2975 0.856929 37.1795 0.698235 37.0774C0.977083 36.0336 1.76602 35.4618 2.41893 34.7447C2.2353 34.6676 2.14008 34.629 2.0494 34.5904C1.90204 34.7765 1.76829 34.9467 1.60052 35.16C1.19472 34.0254 1.16752 34.0141 1.42369 33.297C1.75242 32.378 2.12875 31.4795 2.52548 30.4697C2.49828 30.4243 2.40986 30.2746 2.27838 30.0545C2.48014 29.8389 2.69551 29.6052 2.88141 29.4078C3.23734 29.5053 3.52979 29.587 3.96507 29.7073C3.88119 28.997 3.81317 28.4343 3.73383 27.749C3.93333 27.3066 4.19177 26.7347 4.44795 26.1629C4.41621 26.1493 4.38674 26.1357 4.355 26.1221C4.64745 25.8294 4.94217 25.5344 5.27996 25.1963C5.24369 24.4339 4.60665 23.44 5.94874 22.9839C5.8762 22.6186 6.0825 22.2056 5.76511 21.8607C5.92381 21.4908 6.0825 21.1141 6.33641 20.5219C6.34548 20.5128 6.53591 20.3336 6.73541 20.1475C6.79889 20.2042 6.87824 20.2768 6.98479 20.3721C6.93492 20.6331 6.88277 20.9099 6.82383 21.2208C7.00519 21.2344 7.10721 21.2412 7.22737 21.2503C7.34299 20.6762 7.45407 20.1203 7.56289 19.5802C7.30218 19.4305 7.08681 19.3079 6.91224 19.2058C6.97119 18.929 7.11628 18.6658 7.046 18.482C6.95985 18.2482 6.93265 17.9306 6.8193 17.7944C6.28654 17.1545 6.41122 16.4216 6.38855 15.7023C6.03036 15.5276 5.59055 15.4232 5.73564 14.7833C5.80365 14.7538 5.92154 14.7039 6.0825 14.6335C6.15051 14.5019 6.24573 14.3136 6.33415 14.1411C6.26613 13.9619 6.19585 13.7713 6.07117 13.44C6.32961 13.322 6.61299 13.1949 6.89411 13.0678C6.84197 12.9907 6.78756 12.9135 6.73541 12.8341C6.96665 12.8999 7.1979 12.968 7.49941 13.0542C7.45861 12.8977 7.411 12.7184 7.35659 12.5074C7.95283 12.4166 8.60347 12.3168 9.24958 12.2192C9.30853 12.378 9.35614 12.5096 9.39921 12.6322C10.164 12.6503 10.7028 12.5838 11.0156 12.4325C11.7774 12.8024 12.8225 12.8931 13.6477 12.6231C13.9696 12.8886 14.3301 13.1881 14.6996 13.4944C14.7155 13.4786 14.7925 13.3469 14.8787 13.3424C15.6064 13.3016 16.3115 13.4468 16.9463 13.794C17.6785 14.1956 18.4266 14.4656 19.27 14.4747C19.4264 14.4747 19.5806 14.6245 19.7461 14.7107C20.2992 14.4497 20.2856 13.8121 20.6121 13.4059C20.7186 13.2743 20.7005 12.9181 20.5962 12.7592C20.1768 12.1171 20.0045 11.4091 19.8844 10.6739C19.8685 10.5832 19.7619 10.506 19.7415 10.4765C19.8231 10.1361 19.9977 9.83435 19.932 9.5961C19.5987 8.36624 19.635 7.15906 19.9365 5.9292C20.0363 5.51849 20 5.08963 20.1428 4.6585C20.2902 4.21602 20.7322 3.9528 20.73 3.41729C20.73 3.06331 20.9748 2.70933 21.104 2.36896C20.6121 2.0354 20.2426 2.42115 19.7529 2.51645C19.7393 2.226 19.7257 1.97413 19.7143 1.73134C19.9229 1.58611 20.1677 1.484 20.306 1.3002C20.4239 1.1459 20.4194 0.90084 20.4715 0.689812C21.1018 1.26163 21.6957 0.351713 22.394 0.762423C22.4144 0.932607 22.4439 1.21398 22.4756 1.49308C22.725 1.43181 22.9812 1.36828 23.2033 1.31382C23.3552 1.46585 23.4618 1.5725 23.5683 1.67915C23.5683 1.90606 23.5683 2.1307 23.5683 2.28046C23.8132 2.53233 24.0172 2.74336 24.2507 2.98389C24.1714 3.08373 24.0671 3.15407 24.0671 3.22442C24.0626 3.7622 23.8381 4.32267 24.219 4.82187C24.0943 5.84978 24.8832 6.87089 24.2462 7.90334C24.3255 8.398 24.2961 8.95394 24.5205 9.36919C24.7064 9.70728 24.6792 10.0023 24.6905 10.3199C24.7132 10.9235 24.7087 11.5271 24.6951 12.1307C24.6656 13.3742 24.7721 14.5927 25.1326 15.7953C25.246 16.1765 25.1507 16.619 25.1507 17.0479C25.4999 17.3746 25.8535 17.7059 26.3001 18.1257C26.4226 18.069 26.6538 17.9873 26.8578 17.8602C27.4269 17.5062 28.2067 17.4336 28.5581 16.8051C29.075 15.8861 30.0657 15.346 30.433 14.3022C30.5441 13.9891 30.9317 13.7713 31.2174 13.4854C31.3784 13.6079 31.4894 13.6919 31.5756 13.7577C31.7343 13.676 31.8907 13.5966 32.0879 13.4944C32.19 13.1427 32.3101 12.7388 32.4507 12.2555C32.9948 12.1103 32.9086 11.1777 33.8653 11.0166C33.5933 11.3184 33.4436 11.484 33.2532 11.695C33.693 11.7722 34.0852 11.8834 34.3709 11.4341C34.2553 11.2117 34.1328 10.9712 33.9923 10.6989C34.1532 10.5559 34.3459 10.3857 34.618 10.1475H35.5225C35.7084 9.7572 35.8807 9.38961 36.1074 8.91309C36.2049 9.18539 36.2503 9.31473 36.3115 9.48718C36.7173 9.50533 36.8374 9.28069 36.9168 8.90175C37.0913 8.05537 37.7375 7.58793 38.4924 7.02519C38.5785 6.80508 38.7214 6.43068 38.9413 5.8634L38.9503 5.86567ZM2.06754 32.5891C2.3154 33.2607 2.63128 33.4438 3.01517 33.1382C2.73179 32.9521 2.62977 32.5369 2.44614 33.4627C2.18996 33.4831 2.0562 33.4922 1.91791 33.5035V34.3567C2.15369 33.9573 2.28064 33.7418 2.06981 32.5891H2.06754ZM13.8449 30.1157C14.0195 30.0703 14.1736 30.0318 14.4638 29.9569C14.2076 29.6664 14.0399 29.4781 13.8472 29.258C14.0739 29.1128 14.3051 28.9607 14.4865 28.8427C14.55 28.4978 14.6089 28.1938 14.6747 27.8466C14.5976 27.7695 14.4638 27.6356 14.2915 27.4631V26.5056C14.0557 26.3671 13.8426 26.2423 13.727 26.1743C13.5751 25.7636 13.455 25.4391 13.3348 25.1123C12.4824 24.4475 11.4532 23.921 11.5665 22.6435C11.1063 22.5482 10.662 22.7956 10.3446 22.3985C9.86622 22.8772 9.38787 23.356 8.973 23.7713C8.85058 24.1479 8.83018 24.5178 8.63974 24.7311C8.36543 25.0374 8.46291 25.3506 8.43344 25.6524C8.27475 25.8294 8.06845 25.97 7.9891 26.1652C7.50168 27.3587 7.07547 28.575 6.44296 29.705C6.39309 29.7935 6.41349 29.916 6.39536 30.025C6.32054 30.5219 6.2956 31.0324 6.15505 31.509C6.02809 31.9378 5.76965 32.3281 5.5112 32.8545C5.48626 33.1041 5.53841 33.5466 5.38651 33.9006C4.81068 35.2507 4.70413 36.7075 4.3278 38.1166C4.58851 38.3367 4.83335 38.541 5.10313 38.7701C5.30263 38.0917 5.92154 38.0803 6.32508 37.7921C6.77169 37.4745 7.29084 37.2566 7.76466 37.0002C7.57876 36.2106 8.74403 36.0994 8.42211 35.346C9.27679 35.1849 9.44909 34.3431 10.0453 33.9551C10.3015 33.7872 10.3808 33.2789 10.4511 32.9067C10.5395 32.4302 10.8139 32.3168 11.2129 32.344C11.9497 31.8153 12.4099 31.0801 12.7862 30.236C12.9268 30.4765 13.022 30.6399 13.1331 30.8328C13.4187 30.5446 13.6409 30.3177 13.8426 30.1135L13.8449 30.1157ZM31.0927 36.8732C31.3239 36.8732 31.5529 36.8368 31.7615 36.8822C31.995 36.9344 32.2081 37.0638 32.6252 37.2453C33.5139 38.0259 34.6475 38.7928 36.316 38.9585C36.4747 39.1491 36.7513 39.4849 36.9304 39.7027C37.3611 39.6347 37.6694 39.587 37.9823 39.5394C38.1138 39.4078 38.2453 39.2761 38.4176 39.1037H39.1906C39.2836 38.8632 39.372 38.6363 39.4672 38.3957C39.2677 38.221 39.1136 38.0849 38.9753 37.9646C38.7599 38.0939 38.6103 38.1824 38.5083 38.246C38.1841 37.9192 37.9007 37.6356 37.5969 37.3292C37.5924 37.2271 37.5833 37.0842 37.5788 37.007C37.318 36.8414 37.1095 36.7098 36.885 36.5646V35.7636C36.0689 35.3914 35.5724 34.6789 34.9444 34.1162C34.3187 33.5557 33.6703 33.0225 33.0854 32.5187C33.0696 32.2532 33.0582 32.0785 33.056 32.0354C32.5278 31.6292 31.9905 31.6133 31.5484 31.2253C31.1471 30.8736 30.5373 30.7375 30.0725 30.0613C29.9592 30.3789 29.8912 30.5627 29.8254 30.7465C29.8005 30.7102 29.7755 30.6739 29.7506 30.6376C29.6577 31.1255 29.5647 31.6156 29.4514 32.2033C30.1315 33.0338 30.1972 34.1026 30.1337 35.0465C30.4761 35.7 30.7526 36.2265 31.0927 36.8754V36.8732ZM18.1161 23.9755C18.1297 23.7009 18.1433 23.4218 18.1478 23.3174C17.8939 22.9884 17.7352 22.7819 17.5924 22.5981C17.2092 22.732 16.885 22.8432 16.5042 22.9771C16.7082 23.3379 16.8941 23.6737 17.0664 23.9755H18.1138H18.1161ZM14.7336 36.6644C14.924 37.0638 14.1895 37.3383 14.7132 37.8171C15.0533 37.6673 15.3072 37.4359 15.4319 37.0865C15.4749 36.9662 15.4387 36.8164 15.4387 36.6621H14.7336V36.6644ZM6.20719 23.5716C6.8193 23.3969 6.93265 23.0928 6.80116 22.6344H6.20719V23.5716ZM19.7869 19.4191C19.9614 19.1854 20.0725 19.0334 20.1904 18.8722C19.6191 18.4593 19.3992 18.4275 19.2519 18.7815C19.3743 18.9267 19.5194 19.1014 19.7846 19.4168L19.7869 19.4191ZM22.5028 27.7831H23.1376C23.1195 27.5425 23.1059 27.3406 23.0741 26.9049C22.9494 27.4427 22.2784 27.2044 22.5028 27.7831ZM5.7039 38.575C5.93968 38.6907 6.12331 38.7815 6.31828 38.8745C6.40442 38.7883 6.51098 38.6816 6.63566 38.5568C6.47017 38.4275 6.30467 38.2982 6.13691 38.1688C5.97822 38.3163 5.87166 38.4184 5.7039 38.575ZM15.153 18.3504C15.6744 18.1076 15.747 17.8216 15.5974 17.4041C15.4636 17.4246 15.3389 17.445 15.1734 17.4722C15.2913 17.597 15.3638 17.6719 15.4024 17.715C15.3298 17.9011 15.2618 18.0713 15.1507 18.3504H15.153ZM35.1915 10.7012C34.856 10.7352 34.8515 10.7352 34.6656 11.1323C34.6497 11.1641 34.7336 11.2412 34.7041 11.2004C34.8742 11.0256 35.0623 10.835 35.1915 10.7012ZM40.9612 5.05332C41.3965 5.20309 41.5166 5.09417 41.4305 4.88541C41.2922 4.93533 41.1267 4.99433 40.9612 5.05332ZM20.8841 14.9784C21.002 14.9399 21.1743 14.8854 21.3443 14.8332C21.3217 14.8015 21.2967 14.7674 21.2741 14.7356H20.8841V14.9807V14.9784ZM16.7354 19.1627C16.5654 19.3374 16.4543 19.4531 16.1777 19.7368C16.5586 19.6574 16.6833 19.6301 16.8193 19.6006C16.7898 19.4509 16.7717 19.351 16.7354 19.1604V19.1627ZM33.2237 11.9787H33.1489V12.2056H33.2237V11.9787ZM20.8637 19.3715V19.2966H20.637V19.3715H20.8637Z" fill="white"/>
<path id="Vector_2" d="M0 37.6628C0.106552 37.3882 0.215371 37.1159 0.342326 36.7914C0.720925 37.2748 0.453412 37.5289 0 37.6628Z" fill="white"/>
<path id="Vector_3" d="M38.9436 5.92241C39.0887 5.91107 39.2315 5.89745 39.3766 5.88611L39.397 6.03133C39.2497 6.06083 39.1046 6.08806 38.9572 6.11756C38.9527 6.05175 38.9504 5.98822 38.9459 5.92241H38.9436Z" fill="white"/>
<path id="Vector_4" d="M43.8993 1.55208C43.9514 1.49082 44.0036 1.42955 44.058 1.36829L44.1283 1.43863L43.9446 1.59747C43.931 1.58385 43.9152 1.56797 43.9016 1.55435L43.8993 1.55208Z" fill="white"/>
<path id="Vector_5" d="M43.947 1.59293C43.8949 1.65419 43.8427 1.71546 43.7883 1.77673L43.718 1.70638C43.7792 1.65419 43.8404 1.60201 43.9016 1.54755C43.9153 1.56116 43.9311 1.57704 43.9447 1.59066L43.947 1.59293Z" fill="white"/>
<path id="Vector_6" d="M13.6795 30.0908C13.6681 29.9456 13.6545 29.8026 13.6432 29.6574L13.7883 29.6392C13.8178 29.7867 13.845 29.9342 13.8744 30.0817L13.6795 30.0908Z" fill="white"/>
</g>
<defs>
<clipPath id="clip0_607_54">
<rect width="50" height="50" fill="white"/>
</clipPath>
</defs>
</svg>
